<!-- Generated by IcoMoon.io -->
<svg version="1.1" xmlns="http://www.w3.org/2000/svg" width="1024" height="1024" viewBox="0 0 1024 1024">
<title></title>
<g id="icomoon-ignore">
</g>
<path fill="#517a9e" d="M512.043 0c-282.325 0-512 229.632-512 511.915 0 282.368 229.717 512.085 512 512.085s511.915-229.717 511.915-512.085c0-282.283-229.589-511.915-511.915-511.915zM512.043 103.68c225.462 0 408.235 182.773 408.235 408.235v0c0 225.536-182.741 408.405-408.235 408.405s-408.32-182.869-408.32-408.405c0-225.493 182.827-408.235 408.32-408.235zM506.283 159.573l-129.92 75.093 114.347 197.973c18.133-4.821 37.888-3.413 55.893 5.035l60.16-104.192zM684.203 255.829l-114.347 198.101c13.867 13.824 22.187 31.957 23.765 50.987h120.149l100.523-173.909zM203.947 340.651v151.467h0.085v-1.28h228.693c5.156-19.174 16.624-35.134 31.995-45.907l0.261-0.173-60.117-104.107zM310.059 519.083l-100.523 173.824 130.091 75.179 114.432-198.187c-13.188-13.192-21.919-30.84-23.741-50.491l-0.024-0.325zM591.233 533.163c-5.174 19.141-16.639 35.069-31.994 45.821l-0.262 0.174 60.16 104.192h200.832v-150.187zM477.313 586.24l-60.16 104.192 100.395 173.909 130.091-75.093-114.347-197.973c-18.133 4.864-37.973 3.413-55.979-5.035z"></path>
</svg>
